<?xml version="1.0" standalone="no"?>
<!DOCTYPE svg PUBLIC "-//W3C//DTD SVG 20010904//EN"
 "http://www.w3.org/TR/2001/REC-SVG-20010904/DTD/svg10.dtd">
<svg version="1.0" xmlns="http://www.w3.org/2000/svg"
 width="260.000000pt" height="260.000000pt" viewBox="0 0 260.000000 260.000000"
 preserveAspectRatio="xMidYMid meet">
<metadata>
Created by potrace 1.14, written by Peter Selinger 2001-2017
</metadata>
<g transform="translate(0.000000,260.000000) scale(0.100000,-0.100000)"
fill="#000000" stroke="none">
<path d="M560 1648 c0 -2 78 -237 173 -523 l173 -520 107 -3 c59 -1 107 -1
107 1 0 22 261 766 265 756 3 -8 61 -180 129 -384 l124 -370 105 -3 105 -3
171 518 c94 285 171 522 171 526 0 4 -41 6 -92 5 l-92 -3 -130 -392 c-72 -216
-133 -393 -136 -393 -3 1 -63 178 -135 395 l-130 395 -90 0 -91 0 -31 -92
c-17 -51 -76 -226 -132 -388 -55 -162 -102 -299 -104 -305 -3 -8 -20 38 -42
110 -1 6 -4 13 -5 17 -2 4 -51 152 -110 330 l-106 323 -102 3 c-56 1 -102 1
-102 0z"/>
<path d="M516 1104 c-9 -8 -19 -27 -22 -41 -17 -67 79 -109 130 -57 22 22 20
70 -4 94 -24 24 -82 27 -104 4z"/>
<path d="M510 645 l0 -255 60 0 60 0 0 255 0 255 -60 0 -60 0 0 -255z"/>
</g>
</svg>
